<mxfile host="app.diagrams.net" modified="2024-05-16T20:25:23.320Z" agent="Mozilla/5.0 (Macintosh; Intel Mac OS X 10_15_7) AppleWebKit/537.36 (KHTML, like Gecko) Chrome/124.0.0.0 Safari/537.36" etag="5jgq7P0rAXQsLoSROoNS" version="24.4.2" type="device">
  <diagram id="kgpKYQtTHZ0yAKxKKP6v" name="Page-1">
    <mxGraphModel dx="1592" dy="1053" grid="1" gridSize="10" guides="1" tooltips="1" connect="1" arrows="1" fold="1" page="1" pageScale="1" pageWidth="850" pageHeight="1100" math="0" shadow="0">
      <root>
        <mxCell id="0" />
        <mxCell id="1" parent="0" />
        <mxCell id="3nuBFxr9cyL0pnOWT2aG-1" value="Заказ блюд из ресторанов" style="shape=table;childLayout=tableLayout;startSize=40;collapsible=0;recursiveResize=0;expand=0;fillColor=none;fontStyle=1" parent="1" vertex="1">
          <mxGeometry x="20" y="155" width="810" height="790" as="geometry" />
        </mxCell>
        <mxCell id="3nuBFxr9cyL0pnOWT2aG-3" value="Пользователь" style="shape=tableRow;horizontal=0;swimlaneHead=0;swimlaneBody=0;top=0;left=0;bottom=0;right=0;fillColor=none;points=[[0,0.5],[1,0.5]];portConstraint=eastwest;startSize=40;collapsible=0;recursiveResize=0;expand=0;fontStyle=1;" parent="3nuBFxr9cyL0pnOWT2aG-1" vertex="1">
          <mxGeometry y="40" width="810" height="249" as="geometry" />
        </mxCell>
        <mxCell id="3nuBFxr9cyL0pnOWT2aG-4" value="Размещение" style="swimlane;swimlaneHead=0;swimlaneBody=0;connectable=0;fillColor=none;startSize=40;collapsible=0;recursiveResize=0;expand=0;fontStyle=1;" parent="3nuBFxr9cyL0pnOWT2aG-3" vertex="1">
          <mxGeometry x="40" width="207" height="249" as="geometry">
            <mxRectangle width="207" height="249" as="alternateBounds" />
          </mxGeometry>
        </mxCell>
        <mxCell id="xsEiPece_Irpf4ebUzNi-56" style="edgeStyle=orthogonalEdgeStyle;rounded=0;orthogonalLoop=1;jettySize=auto;html=1;" edge="1" parent="3nuBFxr9cyL0pnOWT2aG-4" source="xsEiPece_Irpf4ebUzNi-53" target="xsEiPece_Irpf4ebUzNi-20">
          <mxGeometry relative="1" as="geometry" />
        </mxCell>
        <mxCell id="xsEiPece_Irpf4ebUzNi-55" style="edgeStyle=orthogonalEdgeStyle;rounded=0;orthogonalLoop=1;jettySize=auto;html=1;" edge="1" parent="3nuBFxr9cyL0pnOWT2aG-4" source="xsEiPece_Irpf4ebUzNi-54" target="xsEiPece_Irpf4ebUzNi-53">
          <mxGeometry relative="1" as="geometry" />
        </mxCell>
        <mxCell id="xsEiPece_Irpf4ebUzNi-25" value="Отправка заказа в ресторан" style="rounded=0;whiteSpace=wrap;html=1;" vertex="1" parent="3nuBFxr9cyL0pnOWT2aG-4">
          <mxGeometry x="43.5" y="334" width="120" height="40" as="geometry" />
        </mxCell>
        <mxCell id="xsEiPece_Irpf4ebUzNi-50" value="Верификация оплаты заказа" style="rounded=0;whiteSpace=wrap;html=1;" vertex="1" parent="3nuBFxr9cyL0pnOWT2aG-4">
          <mxGeometry x="43.5" y="274" width="120" height="40" as="geometry" />
        </mxCell>
        <mxCell id="xsEiPece_Irpf4ebUzNi-20" value="Создание заказа" style="rounded=0;whiteSpace=wrap;html=1;" vertex="1" parent="3nuBFxr9cyL0pnOWT2aG-4">
          <mxGeometry x="43.5" y="180" width="120" height="40" as="geometry" />
        </mxCell>
        <mxCell id="xsEiPece_Irpf4ebUzNi-51" style="edgeStyle=orthogonalEdgeStyle;rounded=0;orthogonalLoop=1;jettySize=auto;html=1;" edge="1" parent="3nuBFxr9cyL0pnOWT2aG-4" source="xsEiPece_Irpf4ebUzNi-20" target="xsEiPece_Irpf4ebUzNi-50">
          <mxGeometry relative="1" as="geometry" />
        </mxCell>
        <mxCell id="xsEiPece_Irpf4ebUzNi-53" value="Сбор корзины" style="rounded=0;whiteSpace=wrap;html=1;" vertex="1" parent="3nuBFxr9cyL0pnOWT2aG-4">
          <mxGeometry x="43.5" y="120" width="120" height="40" as="geometry" />
        </mxCell>
        <mxCell id="xsEiPece_Irpf4ebUzNi-52" style="edgeStyle=orthogonalEdgeStyle;rounded=0;orthogonalLoop=1;jettySize=auto;html=1;" edge="1" parent="3nuBFxr9cyL0pnOWT2aG-4" source="xsEiPece_Irpf4ebUzNi-50" target="xsEiPece_Irpf4ebUzNi-25">
          <mxGeometry relative="1" as="geometry" />
        </mxCell>
        <mxCell id="xsEiPece_Irpf4ebUzNi-54" value="Выбор ресторана" style="rounded=0;whiteSpace=wrap;html=1;" vertex="1" parent="3nuBFxr9cyL0pnOWT2aG-4">
          <mxGeometry x="43.5" y="60" width="120" height="40" as="geometry" />
        </mxCell>
        <mxCell id="3nuBFxr9cyL0pnOWT2aG-8" value="Выполнение" style="swimlane;swimlaneHead=0;swimlaneBody=0;connectable=0;fillColor=none;startSize=40;collapsible=0;recursiveResize=0;expand=0;fontStyle=1;" parent="3nuBFxr9cyL0pnOWT2aG-3" vertex="1">
          <mxGeometry x="247" width="270" height="249" as="geometry">
            <mxRectangle width="270" height="249" as="alternateBounds" />
          </mxGeometry>
        </mxCell>
        <mxCell id="xsEiPece_Irpf4ebUzNi-87" value="Ожидание заказа" style="rounded=0;whiteSpace=wrap;html=1;" vertex="1" parent="3nuBFxr9cyL0pnOWT2aG-8">
          <mxGeometry x="60.75" y="180" width="148.5" height="40" as="geometry" />
        </mxCell>
        <mxCell id="3nuBFxr9cyL0pnOWT2aG-11" value="Доставка" style="swimlane;swimlaneHead=0;swimlaneBody=0;connectable=0;fillColor=none;startSize=40;collapsible=0;recursiveResize=0;expand=0;fontStyle=1;" parent="3nuBFxr9cyL0pnOWT2aG-3" vertex="1">
          <mxGeometry x="517" width="293" height="249" as="geometry">
            <mxRectangle width="293" height="249" as="alternateBounds" />
          </mxGeometry>
        </mxCell>
        <mxCell id="xsEiPece_Irpf4ebUzNi-108" style="edgeStyle=orthogonalEdgeStyle;rounded=0;orthogonalLoop=1;jettySize=auto;html=1;" edge="1" parent="3nuBFxr9cyL0pnOWT2aG-11" source="xsEiPece_Irpf4ebUzNi-91" target="xsEiPece_Irpf4ebUzNi-107">
          <mxGeometry relative="1" as="geometry" />
        </mxCell>
        <mxCell id="xsEiPece_Irpf4ebUzNi-91" value="Получение заказа" style="shape=process;whiteSpace=wrap;html=1;backgroundOutline=1;" vertex="1" parent="3nuBFxr9cyL0pnOWT2aG-11">
          <mxGeometry x="63" y="183.5" width="170" height="33" as="geometry" />
        </mxCell>
        <mxCell id="xsEiPece_Irpf4ebUzNi-107" value="Создание отзыва" style="shape=process;whiteSpace=wrap;html=1;backgroundOutline=1;" vertex="1" parent="3nuBFxr9cyL0pnOWT2aG-11">
          <mxGeometry x="61.5" y="120" width="170" height="33" as="geometry" />
        </mxCell>
        <mxCell id="xsEiPece_Irpf4ebUzNi-89" style="edgeStyle=orthogonalEdgeStyle;rounded=0;orthogonalLoop=1;jettySize=auto;html=1;entryX=0;entryY=0.5;entryDx=0;entryDy=0;" edge="1" parent="3nuBFxr9cyL0pnOWT2aG-3" source="xsEiPece_Irpf4ebUzNi-20" target="xsEiPece_Irpf4ebUzNi-87">
          <mxGeometry relative="1" as="geometry" />
        </mxCell>
        <mxCell id="xsEiPece_Irpf4ebUzNi-92" style="edgeStyle=orthogonalEdgeStyle;rounded=0;orthogonalLoop=1;jettySize=auto;html=1;entryX=0;entryY=0.5;entryDx=0;entryDy=0;" edge="1" parent="3nuBFxr9cyL0pnOWT2aG-3" source="xsEiPece_Irpf4ebUzNi-87" target="xsEiPece_Irpf4ebUzNi-91">
          <mxGeometry relative="1" as="geometry" />
        </mxCell>
        <mxCell id="xsEiPece_Irpf4ebUzNi-21" value="Сервис" style="shape=tableRow;horizontal=0;swimlaneHead=0;swimlaneBody=0;top=0;left=0;bottom=0;right=0;fillColor=none;points=[[0,0.5],[1,0.5]];portConstraint=eastwest;startSize=40;collapsible=0;recursiveResize=0;expand=0;fontStyle=1;" vertex="1" parent="3nuBFxr9cyL0pnOWT2aG-1">
          <mxGeometry y="289" width="810" height="150" as="geometry" />
        </mxCell>
        <mxCell id="xsEiPece_Irpf4ebUzNi-22" style="swimlane;swimlaneHead=0;swimlaneBody=0;connectable=0;fillColor=none;startSize=0;collapsible=0;recursiveResize=0;expand=0;fontStyle=1;" vertex="1" parent="xsEiPece_Irpf4ebUzNi-21">
          <mxGeometry x="40" width="207" height="150" as="geometry">
            <mxRectangle width="207" height="150" as="alternateBounds" />
          </mxGeometry>
        </mxCell>
        <mxCell id="xsEiPece_Irpf4ebUzNi-23" style="swimlane;swimlaneHead=0;swimlaneBody=0;connectable=0;fillColor=none;startSize=0;collapsible=0;recursiveResize=0;expand=0;fontStyle=1;" vertex="1" parent="xsEiPece_Irpf4ebUzNi-21">
          <mxGeometry x="247" width="270" height="150" as="geometry">
            <mxRectangle width="270" height="150" as="alternateBounds" />
          </mxGeometry>
        </mxCell>
        <mxCell id="xsEiPece_Irpf4ebUzNi-82" value="Диспатч курьера" style="rounded=0;whiteSpace=wrap;html=1;" vertex="1" parent="xsEiPece_Irpf4ebUzNi-23">
          <mxGeometry x="66.5" y="58.5" width="137" height="33" as="geometry" />
        </mxCell>
        <mxCell id="xsEiPece_Irpf4ebUzNi-24" style="swimlane;swimlaneHead=0;swimlaneBody=0;connectable=0;fillColor=none;startSize=0;collapsible=0;recursiveResize=0;expand=0;fontStyle=1;" vertex="1" parent="xsEiPece_Irpf4ebUzNi-21">
          <mxGeometry x="517" width="293" height="150" as="geometry">
            <mxRectangle width="293" height="150" as="alternateBounds" />
          </mxGeometry>
        </mxCell>
        <mxCell id="3nuBFxr9cyL0pnOWT2aG-15" value="Ресторан" style="shape=tableRow;horizontal=0;swimlaneHead=0;swimlaneBody=0;top=0;left=0;bottom=0;right=0;fillColor=none;points=[[0,0.5],[1,0.5]];portConstraint=eastwest;startSize=40;collapsible=0;recursiveResize=0;expand=0;fontStyle=1;" parent="3nuBFxr9cyL0pnOWT2aG-1" vertex="1">
          <mxGeometry y="439" width="810" height="184" as="geometry" />
        </mxCell>
        <mxCell id="3nuBFxr9cyL0pnOWT2aG-16" value="" style="swimlane;swimlaneHead=0;swimlaneBody=0;connectable=0;fillColor=none;startSize=0;collapsible=0;recursiveResize=0;expand=0;fontStyle=1;" parent="3nuBFxr9cyL0pnOWT2aG-15" vertex="1">
          <mxGeometry x="40" width="207" height="184" as="geometry">
            <mxRectangle width="207" height="184" as="alternateBounds" />
          </mxGeometry>
        </mxCell>
        <mxCell id="xsEiPece_Irpf4ebUzNi-45" value="Подтверждение заказа" style="rounded=0;whiteSpace=wrap;html=1;" vertex="1" parent="3nuBFxr9cyL0pnOWT2aG-16">
          <mxGeometry x="43.5" y="72" width="120" height="40" as="geometry" />
        </mxCell>
        <mxCell id="3nuBFxr9cyL0pnOWT2aG-18" value="" style="swimlane;swimlaneHead=0;swimlaneBody=0;connectable=0;fillColor=none;startSize=0;collapsible=0;recursiveResize=0;expand=0;fontStyle=1;" parent="3nuBFxr9cyL0pnOWT2aG-15" vertex="1">
          <mxGeometry x="247" width="270" height="184" as="geometry">
            <mxRectangle width="270" height="184" as="alternateBounds" />
          </mxGeometry>
        </mxCell>
        <mxCell id="xsEiPece_Irpf4ebUzNi-69" value="Приготовление заказа" style="shape=process;whiteSpace=wrap;html=1;backgroundOutline=1;" vertex="1" parent="3nuBFxr9cyL0pnOWT2aG-18">
          <mxGeometry x="66.5" y="75.5" width="137" height="33" as="geometry" />
        </mxCell>
        <mxCell id="3nuBFxr9cyL0pnOWT2aG-23" value="" style="swimlane;swimlaneHead=0;swimlaneBody=0;connectable=0;fillColor=none;startSize=0;collapsible=0;recursiveResize=0;expand=0;fontStyle=1;" parent="3nuBFxr9cyL0pnOWT2aG-15" vertex="1">
          <mxGeometry x="517" width="293" height="184" as="geometry">
            <mxRectangle width="293" height="184" as="alternateBounds" />
          </mxGeometry>
        </mxCell>
        <mxCell id="xsEiPece_Irpf4ebUzNi-73" style="edgeStyle=orthogonalEdgeStyle;rounded=0;orthogonalLoop=1;jettySize=auto;html=1;" edge="1" parent="3nuBFxr9cyL0pnOWT2aG-15" source="xsEiPece_Irpf4ebUzNi-45" target="xsEiPece_Irpf4ebUzNi-69">
          <mxGeometry relative="1" as="geometry" />
        </mxCell>
        <mxCell id="xsEiPece_Irpf4ebUzNi-16" value="Курьер" style="shape=tableRow;horizontal=0;swimlaneHead=0;swimlaneBody=0;top=0;left=0;bottom=0;right=0;fillColor=none;points=[[0,0.5],[1,0.5]];portConstraint=eastwest;startSize=40;collapsible=0;recursiveResize=0;expand=0;fontStyle=1;" vertex="1" parent="3nuBFxr9cyL0pnOWT2aG-1">
          <mxGeometry y="623" width="810" height="167" as="geometry" />
        </mxCell>
        <mxCell id="xsEiPece_Irpf4ebUzNi-17" style="swimlane;swimlaneHead=0;swimlaneBody=0;connectable=0;fillColor=none;startSize=0;collapsible=0;recursiveResize=0;expand=0;fontStyle=1;" vertex="1" parent="xsEiPece_Irpf4ebUzNi-16">
          <mxGeometry x="40" width="207" height="167" as="geometry">
            <mxRectangle width="207" height="167" as="alternateBounds" />
          </mxGeometry>
        </mxCell>
        <mxCell id="xsEiPece_Irpf4ebUzNi-74" value="Ожидает заказ" style="shape=process;whiteSpace=wrap;html=1;backgroundOutline=1;" vertex="1" parent="xsEiPece_Irpf4ebUzNi-17">
          <mxGeometry x="35" y="17" width="137" height="33" as="geometry" />
        </mxCell>
        <mxCell id="xsEiPece_Irpf4ebUzNi-18" value="" style="swimlane;swimlaneHead=0;swimlaneBody=0;connectable=0;fillColor=none;startSize=0;collapsible=0;recursiveResize=0;expand=0;fontStyle=1;" vertex="1" parent="xsEiPece_Irpf4ebUzNi-16">
          <mxGeometry x="247" width="270" height="167" as="geometry">
            <mxRectangle width="270" height="167" as="alternateBounds" />
          </mxGeometry>
        </mxCell>
        <mxCell id="xsEiPece_Irpf4ebUzNi-66" value="Забирает заказ" style="shape=process;whiteSpace=wrap;html=1;backgroundOutline=1;" vertex="1" parent="xsEiPece_Irpf4ebUzNi-18">
          <mxGeometry x="66.5" y="117" width="137" height="33" as="geometry" />
        </mxCell>
        <mxCell id="xsEiPece_Irpf4ebUzNi-77" style="edgeStyle=orthogonalEdgeStyle;rounded=0;orthogonalLoop=1;jettySize=auto;html=1;" edge="1" parent="xsEiPece_Irpf4ebUzNi-18" source="xsEiPece_Irpf4ebUzNi-75" target="xsEiPece_Irpf4ebUzNi-66">
          <mxGeometry relative="1" as="geometry" />
        </mxCell>
        <mxCell id="xsEiPece_Irpf4ebUzNi-75" value="Едет в ресторан" style="shape=process;whiteSpace=wrap;html=1;backgroundOutline=1;" vertex="1" parent="xsEiPece_Irpf4ebUzNi-18">
          <mxGeometry x="66.5" y="67" width="137" height="33" as="geometry" />
        </mxCell>
        <mxCell id="xsEiPece_Irpf4ebUzNi-102" style="edgeStyle=orthogonalEdgeStyle;rounded=0;orthogonalLoop=1;jettySize=auto;html=1;" edge="1" parent="xsEiPece_Irpf4ebUzNi-18" source="xsEiPece_Irpf4ebUzNi-79" target="xsEiPece_Irpf4ebUzNi-75">
          <mxGeometry relative="1" as="geometry" />
        </mxCell>
        <mxCell id="xsEiPece_Irpf4ebUzNi-79" value="Получает заказ" style="rounded=0;whiteSpace=wrap;html=1;" vertex="1" parent="xsEiPece_Irpf4ebUzNi-18">
          <mxGeometry x="66.5" y="17" width="137" height="33" as="geometry" />
        </mxCell>
        <mxCell id="xsEiPece_Irpf4ebUzNi-19" style="swimlane;swimlaneHead=0;swimlaneBody=0;connectable=0;fillColor=none;startSize=0;collapsible=0;recursiveResize=0;expand=0;fontStyle=1;" vertex="1" parent="xsEiPece_Irpf4ebUzNi-16">
          <mxGeometry x="517" width="293" height="167" as="geometry">
            <mxRectangle width="293" height="167" as="alternateBounds" />
          </mxGeometry>
        </mxCell>
        <mxCell id="xsEiPece_Irpf4ebUzNi-104" style="edgeStyle=orthogonalEdgeStyle;rounded=0;orthogonalLoop=1;jettySize=auto;html=1;" edge="1" parent="xsEiPece_Irpf4ebUzNi-19" source="xsEiPece_Irpf4ebUzNi-99" target="xsEiPece_Irpf4ebUzNi-103">
          <mxGeometry relative="1" as="geometry" />
        </mxCell>
        <mxCell id="xsEiPece_Irpf4ebUzNi-99" value="Везёт заказ по адресу" style="shape=process;whiteSpace=wrap;html=1;backgroundOutline=1;" vertex="1" parent="xsEiPece_Irpf4ebUzNi-19">
          <mxGeometry x="48" y="117" width="197" height="33" as="geometry" />
        </mxCell>
        <mxCell id="xsEiPece_Irpf4ebUzNi-103" value="Передаёт заказ клиенту" style="shape=process;whiteSpace=wrap;html=1;backgroundOutline=1;" vertex="1" parent="xsEiPece_Irpf4ebUzNi-19">
          <mxGeometry x="48" y="50" width="197" height="33" as="geometry" />
        </mxCell>
        <mxCell id="xsEiPece_Irpf4ebUzNi-86" style="edgeStyle=orthogonalEdgeStyle;rounded=0;orthogonalLoop=1;jettySize=auto;html=1;" edge="1" parent="xsEiPece_Irpf4ebUzNi-16" source="xsEiPece_Irpf4ebUzNi-74" target="xsEiPece_Irpf4ebUzNi-79">
          <mxGeometry relative="1" as="geometry" />
        </mxCell>
        <mxCell id="xsEiPece_Irpf4ebUzNi-101" style="edgeStyle=orthogonalEdgeStyle;rounded=0;orthogonalLoop=1;jettySize=auto;html=1;" edge="1" parent="xsEiPece_Irpf4ebUzNi-16" source="xsEiPece_Irpf4ebUzNi-66" target="xsEiPece_Irpf4ebUzNi-99">
          <mxGeometry relative="1" as="geometry" />
        </mxCell>
        <mxCell id="xsEiPece_Irpf4ebUzNi-84" style="edgeStyle=orthogonalEdgeStyle;rounded=0;orthogonalLoop=1;jettySize=auto;html=1;entryX=1;entryY=0.5;entryDx=0;entryDy=0;" edge="1" parent="3nuBFxr9cyL0pnOWT2aG-1" source="xsEiPece_Irpf4ebUzNi-82" target="xsEiPece_Irpf4ebUzNi-79">
          <mxGeometry relative="1" as="geometry">
            <Array as="points">
              <mxPoint x="470" y="364" />
              <mxPoint x="470" y="657" />
            </Array>
          </mxGeometry>
        </mxCell>
        <mxCell id="xsEiPece_Irpf4ebUzNi-85" style="edgeStyle=orthogonalEdgeStyle;rounded=0;orthogonalLoop=1;jettySize=auto;html=1;entryX=0;entryY=0.5;entryDx=0;entryDy=0;" edge="1" parent="3nuBFxr9cyL0pnOWT2aG-1" source="xsEiPece_Irpf4ebUzNi-69" target="xsEiPece_Irpf4ebUzNi-66">
          <mxGeometry relative="1" as="geometry">
            <Array as="points">
              <mxPoint x="380" y="580" />
              <mxPoint x="280" y="580" />
              <mxPoint x="280" y="757" />
            </Array>
          </mxGeometry>
        </mxCell>
        <mxCell id="xsEiPece_Irpf4ebUzNi-47" style="edgeStyle=orthogonalEdgeStyle;rounded=0;orthogonalLoop=1;jettySize=auto;html=1;" edge="1" parent="3nuBFxr9cyL0pnOWT2aG-1" source="xsEiPece_Irpf4ebUzNi-25" target="xsEiPece_Irpf4ebUzNi-45">
          <mxGeometry relative="1" as="geometry" />
        </mxCell>
        <mxCell id="xsEiPece_Irpf4ebUzNi-105" style="edgeStyle=orthogonalEdgeStyle;rounded=0;orthogonalLoop=1;jettySize=auto;html=1;" edge="1" parent="3nuBFxr9cyL0pnOWT2aG-1" source="xsEiPece_Irpf4ebUzNi-103" target="xsEiPece_Irpf4ebUzNi-91">
          <mxGeometry relative="1" as="geometry" />
        </mxCell>
        <mxCell id="xsEiPece_Irpf4ebUzNi-106" style="edgeStyle=orthogonalEdgeStyle;rounded=0;orthogonalLoop=1;jettySize=auto;html=1;entryX=0;entryY=0.5;entryDx=0;entryDy=0;" edge="1" parent="3nuBFxr9cyL0pnOWT2aG-1" source="xsEiPece_Irpf4ebUzNi-45" target="xsEiPece_Irpf4ebUzNi-82">
          <mxGeometry relative="1" as="geometry">
            <Array as="points">
              <mxPoint x="270" y="531" />
              <mxPoint x="270" y="364" />
            </Array>
          </mxGeometry>
        </mxCell>
      </root>
    </mxGraphModel>
  </diagram>
</mxfile>
